<?xml version="1.0" encoding="UTF-8" standalone="no"?>
<svg
   width="692"
   height="334.67"
   version="1.1"
   id="svg39"
   sodipodi:docname="example3_reg_arrows.svg"
   inkscape:version="1.3.1 (9b9bdc1480, 2023-11-25, custom)"
   xmlns:inkscape="http://www.inkscape.org/namespaces/inkscape"
   xmlns:sodipodi="http://sodipodi.sourceforge.net/DTD/sodipodi-0.dtd"
   xmlns:xlink="http://www.w3.org/1999/xlink"
   xmlns="http://www.w3.org/2000/svg"
   xmlns:svg="http://www.w3.org/2000/svg"
   xmlns:lucid="lucid">
  <defs
     id="defs40" />
  <sodipodi:namedview
     id="namedview39"
     pagecolor="#ffffff"
     bordercolor="#000000"
     borderopacity="0.25"
     inkscape:showpageshadow="2"
     inkscape:pageopacity="0.0"
     inkscape:pagecheckerboard="0"
     inkscape:deskcolor="#d1d1d1"
     inkscape:zoom="2.0939306"
     inkscape:cx="345.52243"
     inkscape:cy="128.9441"
     inkscape:window-width="1920"
     inkscape:window-height="1131"
     inkscape:window-x="0"
     inkscape:window-y="0"
     inkscape:window-maximized="1"
     inkscape:current-layer="svg39" />
  <g
     transform="translate(-2379 -337.66666666666663)"
     lucid:page-tab-id="HWEp-vi-RSFO"
     id="g39">
    <path
       d="M2400 364.67a6 6 0 0 1 6-6h138a6 6 0 0 1 6 6v38a6 6 0 0 1-6 6h-138a6 6 0 0 1-6-6z"
       stroke="#3a414a"
       stroke-width="2"
       fill="#fff3d9"
       id="path1" />
    <use
       xlink:href="#a"
       transform="matrix(1,0,0,1,2408,366.66666666666663) translate(59.592592592592595 21.444444444444443)"
       id="use1" />
    <path
       d="M2650 364.67a6 6 0 0 1 6-6h138a6 6 0 0 1 6 6v38a6 6 0 0 1-6 6h-138a6 6 0 0 1-6-6z"
       stroke="#3a414a"
       stroke-width="2"
       fill="#fff3d9"
       id="path2" />
    <use
       xlink:href="#b"
       transform="matrix(1,0,0,1,2658,366.66666666666663) translate(59.592592592592595 21.444444444444443)"
       id="use2" />
    <path
       d="M2900 364.67a6 6 0 0 1 6-6h138a6 6 0 0 1 6 6v38a6 6 0 0 1-6 6h-138a6 6 0 0 1-6-6z"
       stroke="#3a414a"
       stroke-width="2"
       fill="#fff3d9"
       id="path3" />
    <use
       xlink:href="#c"
       transform="matrix(1,0,0,1,2908,366.66666666666663) translate(59.00617283950617 21.444444444444443)"
       id="use3" />
    <path
       d="M2520 486a6 6 0 0 1 6-6h138a6 6 0 0 1 6 6v38a6 6 0 0 1-6 6h-138a6 6 0 0 1-6-6z"
       stroke="#3a414a"
       stroke-width="2"
       fill="#e3fae3"
       id="path4" />
    <use
       xlink:href="#d"
       transform="matrix(1,0,0,1,2528,488) translate(30.672839506172842 21.444444444444443)"
       id="use4" />
    <use
       xlink:href="#e"
       transform="matrix(1,0,0,1,2528,488) translate(52.833333333333336 21.444444444444443)"
       id="use5" />
    <path
       d="M2780 486a6 6 0 0 1 6-6h138a6 6 0 0 1 6 6v38a6 6 0 0 1-6 6h-138a6 6 0 0 1-6-6z"
       stroke="#3a414a"
       stroke-width="2"
       fill="#e3fae3"
       id="path5" />
    <use
       xlink:href="#f"
       transform="matrix(1,0,0,1,2788,488) translate(30.672839506172842 21.444444444444443)"
       id="use6" />
    <use
       xlink:href="#g"
       transform="matrix(1,0,0,1,2788,488) translate(51.660493827160494 21.444444444444443)"
       id="use7" />
    <path
       d="M2595 478.5v-22.17a12 12 0 0 1 12-12h81a12 12 0 0 0 12-12v-6.28"
       stroke="#333"
       fill="none"
       id="path7" />
    <path
       d="M2595.47 479h-.94v-.5h.94z"
       stroke="#333"
       stroke-width=".05"
       fill="#333"
       id="path8" />
    <path
       d="M2700 411.3l4.64 14.25h-9.28z"
       stroke="#333"
       fill="#333"
       id="path9" />
    <path
       d="M2595 478.5v-22.17a12 12 0 0 0-12-12h-96a12 12 0 0 1-12-12v-6.28"
       stroke="#333"
       fill="none"
       id="path10" />
    <path
       d="M2595.47 479h-.94v-.5h.94z"
       stroke="#333"
       stroke-width=".05"
       fill="#333"
       id="path11" />
    <path
       d="M2475 411.3l4.64 14.25h-9.28z"
       stroke="#333"
       fill="#333"
       id="path12" />
    <path
       d="M2855 478.5v-22.17a12 12 0 0 0-12-12h-81.67a12 12 0 0 1-12-12v-6.28"
       stroke="#333"
       fill="none"
       id="path13" />
    <path
       d="M2855.47 479h-.94v-.5h.94z"
       stroke="#333"
       stroke-width=".05"
       fill="#333"
       id="path14" />
    <path
       d="M2749.33 411.3l4.64 14.25h-9.27z"
       stroke="#333"
       fill="#333"
       id="path15" />
    <path
       d="M2855 478.5v-22.17a12 12 0 0 1 12-12h75.67a12 12 0 0 0 12-12v-6.28"
       stroke="#333"
       fill="none"
       id="path16" />
    <path
       d="M2855.47 479h-.94v-.5h.94z"
       stroke="#333"
       stroke-width=".05"
       fill="#333"
       id="path17" />
    <path
       d="M2954.67 411.3l4.63 14.25h-9.27z"
       stroke="#333"
       fill="#333"
       id="path18" />
    <path
       d="M2650 607.33a6 6 0 0 1 6-6h138a6 6 0 0 1 6 6v38a6 6 0 0 1-6 6h-138a6 6 0 0 1-6-6z"
       stroke="#3a414a"
       stroke-width="2"
       fill="#fff0f0"
       id="path19" />
    <use
       xlink:href="#h"
       transform="matrix(1,0,0,1,2658,609.3333333333334) translate(31.320987654320987 21.444444444444443)"
       id="use19" />
    <use
       xlink:href="#i"
       transform="matrix(1,0,0,1,2658,609.3333333333334) translate(51.01234567901234 21.444444444444443)"
       id="use20" />
    <path
       d="M2725 599.83v-22.16a12 12 0 0 1 12-12h106a12 12 0 0 0 12-12v-6.3"
       stroke="#333"
       fill="none"
       id="path20" />
    <path
       d="M2725.47 600.33h-.94v-.5h.94z"
       stroke="#333"
       stroke-width=".05"
       fill="#333"
       id="path21" />
    <path
       d="M2855 532.62l4.64 14.26h-9.28z"
       stroke="#333"
       fill="#333"
       id="path22" />
    <path
       d="M2725 599.83v-22.16a12 12 0 0 0-12-12h-106a12 12 0 0 1-12-12v-6.3"
       stroke="#333"
       fill="none"
       id="path23" />
    <path
       d="M2725.47 600.33h-.94v-.5h.94z"
       stroke="#333"
       stroke-width=".05"
       fill="#333"
       id="path24" />
    <path
       d="M2595 532.62l4.64 14.26h-9.28z"
       stroke="#333"
       fill="#333"
       id="path25" />
    <defs
       id="defs39">
      <path
         d="M205 0l-28-72H64L36 0H1l101-248h38L239 0h-34zm-38-99l-47-123c-12 45-31 82-46 123h93"
         id="j" />
      <use
         transform="matrix(0.06172839506172839,0,0,0.06172839506172839,0,0)"
         xlink:href="#j"
         id="a" />
      <path
         d="M160-131c35 5 61 23 61 61C221 17 115-2 30 0v-248c76 3 177-17 177 60 0 33-19 50-47 57zm-97-11c50-1 110 9 110-42 0-47-63-36-110-37v79zm0 115c55-2 124 14 124-45 0-56-70-42-124-44v89"
         id="k" />
      <use
         transform="matrix(0.06172839506172839,0,0,0.06172839506172839,0,0)"
         xlink:href="#k"
         id="b" />
      <path
         d="M212-179c-10-28-35-45-73-45-59 0-87 40-87 99 0 60 29 101 89 101 43 0 62-24 78-52l27 14C228-24 195 4 139 4 59 4 22-46 18-125c-6-104 99-153 187-111 19 9 31 26 39 46"
         id="l" />
      <use
         transform="matrix(0.06172839506172839,0,0,0.06172839506172839,0,0)"
         xlink:href="#l"
         id="c" />
      <path
         d="M30-248c118-7 216 8 213 122C240-48 200 0 122 0H30v-248zM63-27c89 8 146-16 146-99s-60-101-146-95v194"
         id="m" />
      <use
         transform="matrix(0.06172839506172839,0,0,0.06172839506172839,0,0)"
         xlink:href="#m"
         id="d" />
      <path
         d="M87 75C49 33 22-17 22-94c0-76 28-126 65-167h31c-38 41-64 92-64 168S80 34 118 75H87"
         id="n" />
      <path
         d="M68-38c1 34 0 65-14 84H32c9-13 17-26 17-46H33v-38h35"
         id="o" />
      <path
         d="M33-261c38 41 65 92 65 168S71 34 33 75H2C39 34 66-17 66-93S39-220 2-261h31"
         id="p" />
      <g
         id="e">
        <use
           transform="matrix(0.06172839506172839,0,0,0.06172839506172839,0,0)"
           xlink:href="#n"
           id="use25" />
        <use
           transform="matrix(0.06172839506172839,0,0,0.06172839506172839,7.345679012345679,0)"
           xlink:href="#j"
           id="use26" />
        <use
           transform="matrix(0.06172839506172839,0,0,0.06172839506172839,22.160493827160494,0)"
           xlink:href="#o"
           id="use27" />
        <use
           transform="matrix(0.06172839506172839,0,0,0.06172839506172839,28.333333333333332,0)"
           xlink:href="#k"
           id="use28" />
        <use
           transform="matrix(0.06172839506172839,0,0,0.06172839506172839,43.148148148148145,0)"
           xlink:href="#p"
           id="use29" />
      </g>
      <path
         d="M30 0v-248h187v28H63v79h144v27H63v87h162V0H30"
         id="q" />
      <use
         transform="matrix(0.06172839506172839,0,0,0.06172839506172839,0,0)"
         xlink:href="#q"
         id="f" />
      <g
         id="g">
        <use
           transform="matrix(0.06172839506172839,0,0,0.06172839506172839,0,0)"
           xlink:href="#n"
           id="use30" />
        <use
           transform="matrix(0.06172839506172839,0,0,0.06172839506172839,7.345679012345679,0)"
           xlink:href="#k"
           id="use31" />
        <use
           transform="matrix(0.06172839506172839,0,0,0.06172839506172839,22.160493827160494,0)"
           xlink:href="#o"
           id="use32" />
        <use
           transform="matrix(0.06172839506172839,0,0,0.06172839506172839,28.333333333333332,0)"
           xlink:href="#l"
           id="use33" />
        <use
           transform="matrix(0.06172839506172839,0,0,0.06172839506172839,44.32098765432099,0)"
           xlink:href="#p"
           id="use34" />
      </g>
      <path
         d="M63-220v92h138v28H63V0H30v-248h175v28H63"
         id="r" />
      <use
         transform="matrix(0.06172839506172839,0,0,0.06172839506172839,0,0)"
         xlink:href="#r"
         id="h" />
      <g
         id="i">
        <use
           transform="matrix(0.06172839506172839,0,0,0.06172839506172839,0,0)"
           xlink:href="#n"
           id="use35" />
        <use
           transform="matrix(0.06172839506172839,0,0,0.06172839506172839,7.345679012345679,0)"
           xlink:href="#m"
           id="use36" />
        <use
           transform="matrix(0.06172839506172839,0,0,0.06172839506172839,23.333333333333332,0)"
           xlink:href="#o"
           id="use37" />
        <use
           transform="matrix(0.06172839506172839,0,0,0.06172839506172839,29.50617283950617,0)"
           xlink:href="#q"
           id="use38" />
        <use
           transform="matrix(0.06172839506172839,0,0,0.06172839506172839,44.32098765432099,0)"
           xlink:href="#p"
           id="use39" />
      </g>
    </defs>
  </g>
  <path
     style="opacity:0.913344;fill:#f23737;fill-opacity:1;fill-rule:nonzero;stroke:none;stroke-width:1.7;stroke-dasharray:none;stroke-opacity:1"
     id="path64"
     d="m 278.5747,303.40936 c -11.35986,-3.10466 -22.49635,-6.9534 -33.5789,-10.9187 -11.5188,-4.06666 -22.56966,-9.28805 -33.34266,-15.01469 -11.43242,-6.33903 -22.81176,-12.78834 -33.85101,-19.79381 -7.18301,-4.47675 -13.51682,-10.05903 -19.3925,-16.10997 -3.56778,-4.00153 -6.78503,-8.33447 -9.62521,-12.88234 -1.91026,-3.05882 -3.07345,-5.28605 -4.82237,-8.46883 -3.67725,-6.9456 -7.25813,-13.94767 -10.42417,-21.14388 -1.82235,-4.1421 -3.20703,-7.63436 -4.91497,-11.83437 -0.80254,-2.03136 -1.60661,-4.06211 -2.40762,-6.09407 -1.33831,-3.39494 -3.20596,-8.19193 -4.59847,-11.59584 -2.00835,-4.9093 -4.14465,-9.7664 -6.20531,-14.65384 -2.23956,-5.93769 -4.78624,-11.76703 -6.87116,-17.76333 -0.89276,-2.56761 -1.66654,-5.26463 -2.4439,-7.86809 -1.54955,-5.37614 -2.58153,-10.87155 -3.69057,-16.34805 -0.91363,-4.42759 -2.612812,-8.61929 -4.199371,-12.83416 -0.772348,-2.019388 -1.428789,-4.079731 -2.103891,-6.132743 -1.669853,-5.077524 -8.850556,-2.715995 -7.180703,2.361529 v 0 c 0.708527,2.154188 1.400351,4.315074 2.210151,6.434214 1.444417,3.83713 3.016047,7.645 3.865204,11.67177 1.154752,5.69997 2.236068,11.41837 3.856615,17.01183 0.878922,2.93867 1.591425,5.43663 2.602095,8.34019 2.12236,6.0973 4.70881,12.0268 6.99031,18.0637 2.04271,4.84433 4.16132,9.65843 6.15216,14.52442 1.38917,3.39541 3.25322,8.1839 4.58664,11.5661 0.81034,2.0554 1.62385,4.10954 2.43578,6.16431 1.7725,4.35709 3.14693,7.82606 5.04024,12.12479 3.24475,7.36718 6.90941,14.53794 10.67757,21.64837 1.91498,3.47875 3.04409,5.64965 5.1419,8.99742 3.09698,4.9423 6.60807,9.6459 10.50956,13.98047 6.35071,6.52325 13.01146,12.37252 20.76309,17.22363 11.20577,7.10468 22.74757,13.65967 34.35336,20.086 11.09782,5.893 22.47926,11.26937 34.34304,15.4566 11.41478,4.08291 22.88584,8.05792 34.60014,11.20501 5.23516,1.07829 6.7601,-6.32535 1.52493,-7.40364 z" />
  <path
     style="opacity:0.913344;fill:#f23737;fill-opacity:1;fill-rule:nonzero;stroke:none;stroke-width:1.7;stroke-dasharray:none;stroke-opacity:1"
     id="path65"
     d="m 87.200591,95.690568 c -0.226316,2.840711 -0.447498,5.682542 -0.727972,8.518742 -0.210604,2.83532 -0.691929,5.63882 -1.091142,8.45101 -0.75088,5.29206 6.733215,6.35396 7.484094,1.06191 v 0 c 0.41395,-2.91893 0.90963,-5.82926 1.129701,-8.77197 0.274416,-2.79642 0.501687,-5.597632 0.715227,-8.399112 0.608522,-5.310306 -6.901386,-6.170887 -7.509908,-0.86058 z" />
  <path
     style="opacity:0.913344;fill:#f23737;fill-opacity:1;fill-rule:nonzero;stroke:none;stroke-width:1.7;stroke-dasharray:none;stroke-opacity:1"
     id="path66"
     d="m 87.731085,94.691634 c 0.868154,2.208656 1.756207,4.40543 2.706733,6.580146 1.161431,2.77916 3.01947,5.08782 5.116722,7.20557 1.424143,1.43506 2.991948,2.69967 4.77658,3.64981 0.46232,0.52684 2.36267,0.59691 2.84377,0.90927 0.0689,0.0448 -0.16289,-0.0219 -0.24434,-0.0329 0.17793,0.0875 0.35586,0.17493 0.53378,0.26239 0.6163,0.34059 0.27449,0.15626 1.02802,0.54812 4.74473,2.46114 8.2253,-4.24892 3.48057,-6.71006 v 0 c -0.71514,-0.36974 -0.32321,-0.16367 -1.1739,-0.6218 -0.98107,-0.48227 -1.97622,-0.86516 -3.04056,-1.09243 -1.11167,-0.47254 -1.94785,-1.46711 -2.84401,-2.24258 -1.446992,-1.44725 -2.766911,-2.97798 -3.550351,-4.902934 -0.913114,-2.088859 -1.766073,-4.198675 -2.59902,-6.320687 -1.957325,-4.973785 -8.991319,-2.20571 -7.033994,2.768075 z" />
  <path
     style="opacity:0.913344;fill:#f23737;fill-opacity:1;fill-rule:nonzero;stroke:none;stroke-width:1.7;stroke-dasharray:none;stroke-opacity:1"
     id="path67"
     d="m 239.18813,263.99196 c 2.80861,-1.87116 5.50489,-3.97657 7.80526,-6.45788 0.64778,-0.69874 1.23445,-1.45175 1.85167,-2.17762 1.48982,-1.85247 2.71837,-3.88729 3.99361,-5.8867 0.25185,-0.39487 0.4914,-0.79808 0.76004,-1.18172 0.0957,-0.13672 0.47575,-0.4586 0.33072,-0.37597 -0.67688,0.38564 -1.29669,0.86379 -1.94503,1.29569 -1.30554,-0.58026 -2.51621,-1.45793 -3.9166,-1.74078 -0.3173,-0.0641 0.059,0.64472 0.0868,0.96723 0.061,0.70842 0.13086,1.41618 0.17953,2.12556 0.21199,3.08995 0.37141,6.16687 0.66644,9.2515 0.5149,4.85004 1.51148,9.62706 2.34655,14.42685 0.1009,0.48871 0.2018,0.97741 0.30271,1.46612 1.08779,5.23319 8.48865,3.69482 7.40086,-1.53838 v 0 c -0.0855,-0.40819 -0.17106,-0.81638 -0.25659,-1.22457 -0.80353,-4.6101 -1.76082,-9.19834 -2.26932,-13.85498 -0.29747,-3.06299 -0.43645,-6.12146 -0.6607,-9.18917 -0.0159,-0.21704 -0.33954,-4.52206 -0.64092,-4.86738 -1.21095,-1.3875 -2.96164,-2.18974 -4.44245,-3.28461 -0.91224,0.47446 -1.89169,0.83752 -2.73671,1.42338 -0.34475,0.23903 -1.41007,1.97242 -1.59025,2.25496 -1.09259,1.71327 -2.13492,3.46331 -3.39181,5.06523 -0.46874,0.5643 -0.91278,1.15005 -1.40621,1.6929 -2.13654,2.35055 -4.72505,4.2182 -7.3237,6.01744 -4.0962,3.43377 0.75989,9.22668 4.85609,5.7929 z" />
  <path
     style="opacity:0.913344;fill:#f23737;fill-opacity:1;fill-rule:nonzero;stroke:none;stroke-width:1.7;stroke-dasharray:none;stroke-opacity:1"
     id="path68"
     d="m 163.608,205.23824 c 0.50238,-1.27517 1.07146,-2.53526 1.82802,-3.68103 0.0249,0.001 0.0721,-0.0215 0.0746,0.003 0.008,0.0796 -0.13449,0.20691 -0.0588,0.23258 0.15648,0.0531 1.31606,-0.0986 1.39377,-0.10384 0.69748,0.0379 1.40753,0.001 2.09181,0.16883 0.24908,0.061 0.53263,0.224 0.52983,0.2342 -0.0216,0.0786 -0.16025,-0.03 -0.24038,-0.045 0.22559,0.82282 -0.52434,-0.58827 -0.60836,-0.36687 -0.044,0.11591 0.0406,0.24521 0.046,0.36906 0.006,0.14698 -0.009,0.29412 -0.011,0.44122 -0.0165,1.0065 0.0253,0.45009 -0.0845,1.3917 -0.23329,1.44575 -0.60153,2.81404 -1.34928,4.0742 -0.64445,1.08384 -1.54006,1.82044 -2.61258,2.44083 -2.47901,1.22083 -3.79946,2.65253 -2.8833,6.09558 0.43684,1.64172 2.32473,2.09188 3.61011,2.56363 2.44729,0.48778 4.95529,0.35245 7.4345,0.29886 1.20436,-0.0278 2.40878,-0.0525 3.61335,-0.069 5.34455,-0.0733 5.24089,-7.63164 -0.10367,-7.55834 v 0 c -1.2245,0.0168 -2.44887,0.0417 -3.67316,0.07 -1.69864,0.0368 -3.39759,0.0684 -5.09569,0.0192 0.14322,0.61248 1.04145,0.91193 1.09207,1.5389 0.41094,5.09033 0.008,2.61182 -1.57592,4.30794 -0.38902,0.41663 2.33419,-1.54225 1.50755,-0.80713 2.14395,-1.33322 3.99642,-2.97088 5.27035,-5.18627 1.25102,-2.27452 1.96049,-4.52392 2.2934,-7.10085 0.19146,-2.41808 0.22871,-5.10602 -1.17969,-7.22285 -0.35274,-0.53017 -0.84474,-0.95314 -1.2671,-1.42972 -0.43699,-0.27247 -0.85282,-0.58224 -1.31095,-0.81743 -1.86118,-0.9555 -4.05918,-0.94261 -6.09019,-0.94619 -2.91554,0.25134 -5.33559,0.82231 -7.17403,3.32004 -1.1939,1.88869 -2.18784,3.91798 -2.83171,6.06227 -1.2036,5.20779 6.16132,6.90993 7.36492,1.70215 z" />
  <path
     style="opacity:0.913344;fill:#f23737;fill-opacity:1;fill-rule:nonzero;stroke:none;stroke-width:1.7;stroke-dasharray:none;stroke-opacity:1"
     id="path69"
     d="m 183.2285,39.040155 c 1.63911,-1.468735 3.42837,-2.795695 5.37976,-3.820034 -0.3226,0.742635 -2.59562,0.233316 -2.59666,0.235689 -0.0935,0.212718 0.11312,0.450816 0.16287,0.67779 0.36591,1.669438 0.27678,1.310787 0.56296,3.204465 0.16051,1.865926 0.27223,3.741615 0.16524,5.614362 -0.0491,0.860122 -0.0967,1.859282 -0.4737,2.653597 -1.96522,1.845851 3.709,4.504852 4.99405,5.471737 0.0272,0.02048 2.52529,-1.401375 2.7819,-1.543446 0.24036,-0.122041 0.47437,-0.257518 0.72109,-0.366124 0.5904,-0.259884 0.69653,-0.03456 -0.51619,0.164115 -0.45092,0.07387 -0.89509,-0.109378 -0.9252,-0.04211 -0.0445,0.09932 0.0907,0.197819 0.13607,0.296728 0.96236,1.390583 1.19233,2.976311 1.2644,4.620638 0.0226,1.258269 -0.49344,2.272891 -1.36273,3.139991 -1.03927,0.736672 -2.2688,1.141675 -3.49693,1.442823 -1.57977,0.298392 -3.18977,0.343196 -4.78167,0.130731 -5.3081,-0.627467 -6.19547,6.879323 -0.88737,7.506789 v 0 c 2.53048,0.278481 5.08217,0.244759 7.57611,-0.322985 2.67347,-0.720269 5.26287,-1.747729 7.2529,-3.750438 0.33268,-0.393242 0.69331,-0.764442 0.99803,-1.179728 1.57622,-2.148184 2.28911,-4.737768 2.24922,-7.383942 -0.20634,-3.313377 -0.84341,-5.996809 -2.78013,-8.759795 -0.91366,-1.114764 -1.36185,-1.878476 -2.71077,-2.574968 -2.16519,-1.11796 -4.40239,-0.71554 -6.4035,0.468062 -0.16521,0.09179 -2.12589,1.180037 -2.10545,1.211187 4.28235,6.526805 3.39932,7.489572 5.16054,3.881381 0.15146,-0.498187 0.33655,-0.987365 0.45438,-1.494562 0.78588,-3.38302 0.40687,-6.945251 0.15669,-10.360286 -0.67315,-4.145348 -1.57524,-9.602483 -6.80028,-10.097118 -0.80614,-0.07632 -1.58499,0.332492 -2.37749,0.498739 -2.40897,1.315797 -4.67735,2.891004 -6.71485,4.735172 -4.05988,3.476642 0.85683,9.218178 4.91671,5.741536 z" />
  <path
     style="opacity:0.913344;fill:#f23737;fill-opacity:1;fill-rule:nonzero;stroke:none;stroke-width:1.7;stroke-dasharray:none;stroke-opacity:1"
     id="path70"
     d="m 136.49317,87.579212 c 1.13248,-2.182743 2.09277,-4.472559 3.45664,-6.527956 0.88738,-1.337327 1.11189,-1.504598 2.14258,-2.640053 2.44989,-2.303177 4.34953,-1.67117 7.5189,-1.379307 6.55539,0.834341 13.14731,1.388976 19.68909,2.332084 4.80104,0.692151 6.62402,1.097982 11.3553,2.005989 8.74334,1.758331 17.40349,4.096634 25.68254,7.445542 1.62687,0.658074 3.21678,1.404069 4.82517,2.106103 1.54276,0.815836 3.12232,1.56559 4.62828,2.447508 3.30602,1.936059 6.88749,4.482739 9.95206,6.747768 4.88192,3.60825 9.58726,7.44928 14.30419,11.26776 8.70981,7.13786 17.68271,13.94683 26.40625,21.06582 1.57391,1.33012 3.14736,2.66079 4.72173,3.99037 3.93326,3.32168 6.17114,5.1621 10.01106,8.57913 4.67047,4.15611 9.16256,8.48424 13.61701,12.86853 5.71884,5.58574 10.8464,11.74051 16.50323,17.38493 3.6591,3.65106 4.45902,4.21734 8.42405,7.64938 8.631,6.80272 17.78886,12.8941 26.5844,19.47708 6.47905,4.7563 12.62094,9.94328 18.81469,15.05883 6.09706,5.16738 12.5998,9.80903 19.27287,14.19467 6.47369,4.16134 13.21592,7.87464 20.23791,11.02621 5.12608,2.30067 7.17504,3.02752 12.43682,5.08718 9.42051,3.60897 19.07589,6.55594 28.83668,9.08603 4.99326,1.30799 10.08523,1.96755 15.22664,2.26044 3.19113,0.0472 6.47536,0.42515 9.62457,-0.30373 0.53637,-0.12414 1.05631,-0.31079 1.58447,-0.46619 3.37921,-1.34419 5.19698,-3.60447 6.92183,-6.67962 1.11002,-2.17428 2.07306,-4.49924 2.26086,-6.96138 0.0419,-0.54926 0.0141,-1.10162 0.0212,-1.65243 -0.19368,-3.50819 -1.46002,-6.7969 -2.83528,-9.98749 -1.24447,-3.03236 -2.79023,-5.92266 -4.18116,-8.88668 -1.3926,-3.09778 -3.18902,-5.973 -5.09026,-8.77729 -2.13533,-3.12028 -4.29618,-6.22381 -6.37656,-9.38125 -0.89464,-1.42192 -1.82178,-2.82022 -2.78328,-4.19742 -3.06591,-4.37834 -9.25782,-0.0425 -6.19191,4.33585 v 0 c 0.92535,1.31677 1.80312,2.66349 2.66475,4.02301 2.10144,3.1841 4.2768,6.31858 6.433,9.46561 1.68247,2.47453 3.27826,5.00733 4.503,7.74653 1.36132,2.89299 2.8678,5.71629 4.08604,8.67597 0.98185,2.25378 1.93873,4.56439 2.21274,7.02925 0.0916,1.76241 -0.52918,3.38536 -1.34926,4.92987 -0.64148,1.21263 -1.32268,2.43006 -2.56877,3.10827 -2.70123,0.99457 -5.70894,0.39962 -8.51103,0.43202 -4.64605,-0.25823 -9.24447,-0.8478 -13.75687,-2.03108 -9.4707,-2.44935 -18.83689,-5.3124 -27.97792,-8.80801 -5.8841,-2.29965 -11.73779,-4.61977 -17.39952,-7.43753 -3.53251,-1.75808 -6.22871,-3.30352 -9.60205,-5.32165 -1.43668,-0.85951 -2.85141,-1.75518 -4.27712,-2.63277 -6.4459,-4.2302 -12.72243,-8.71476 -18.60875,-13.7046 -6.28706,-5.19262 -12.52358,-10.45506 -19.10006,-15.28323 -8.65619,-6.47372 -17.65116,-12.4864 -26.17002,-19.14369 -3.67848,-3.17369 -4.5185,-3.77988 -7.91477,-7.16616 -5.70928,-5.6925 -10.87604,-11.909 -16.65349,-17.53702 -4.56585,-4.49138 -9.16998,-8.92472 -13.95659,-13.1828 -3.86855,-3.44139 -6.14249,-5.31372 -10.0945,-8.65067 -1.60773,-1.35752 -3.21478,-2.71584 -4.82217,-4.07376 -8.73347,-7.12204 -17.7086,-13.94331 -26.42852,-21.08392 -4.8362,-3.91449 -9.66037,-7.853407 -14.67039,-11.54618 -3.43634,-2.532845 -7.12155,-5.136258 -10.82132,-7.283164 -1.67046,-0.969336 -3.42137,-1.792868 -5.13206,-2.689301 -1.73395,-0.752718 -3.44861,-1.551539 -5.20185,-2.258153 -8.67453,-3.496112 -17.74292,-5.946237 -26.89997,-7.786475 -4.99565,-0.95587 -6.75134,-1.3503 -11.82746,-2.081072 -6.64156,-0.956136 -13.33356,-1.522859 -19.98946,-2.36407 -2.08967,-0.170852 -3.88646,-0.426595 -5.9805,-0.187538 -3.08027,0.351646 -5.706,1.90543 -7.84512,4.083744 -1.4565,1.669859 -1.74286,1.883975 -2.981,3.787242 -1.50706,2.316642 -2.61925,4.861816 -3.8667,7.319449 -2.17468,4.882664 4.73045,7.958133 6.90513,3.07547 z" />
  <path
     style="opacity:0.913344;fill:#f23737;fill-opacity:1;fill-rule:nonzero;stroke:none;stroke-width:1.7;stroke-dasharray:none;stroke-opacity:1"
     id="path71"
     d="m 451.01519,202.02166 c 0,2.67704 0,5.35407 0,8.03111 -0.0774,2.4625 0.10237,4.91613 0.29987,7.36818 -0.0755,1.09465 -0.0338,2.21982 -0.23262,3.30146 -0.28863,1.32891 -0.22991,2.67984 -0.0392,4.0135 0.0661,0.24489 0.1322,0.48979 0.19831,0.73468 1.56803,5.10989 8.7945,2.89235 7.22647,-2.21753 v 0 c 0.004,0.0419 0.008,0.0839 0.0115,0.12584 -0.005,0.0373 -0.0107,0.149 -0.016,0.11175 -0.08,-0.55658 -0.0151,-1.13428 0.0989,-1.67726 0.21924,-1.65412 0.32016,-3.33087 0.28736,-4.99941 -0.18131,-2.2504 -0.35554,-4.50084 -0.27546,-6.76121 0,-2.67704 0,-5.35407 0,-8.03111 0,-5.34506 -7.55906,-5.34506 -7.55906,0 z" />
  <path
     style="opacity:0.913344;fill:#f23737;fill-opacity:1;fill-rule:nonzero;stroke:none;stroke-width:1.7;stroke-dasharray:none;stroke-opacity:1"
     id="path72"
     d="m 455.39823,207.21898 c 2.14858,0.99271 4.30309,1.97455 6.46632,2.93522 2.37172,1.11134 4.79471,2.08878 7.2675,2.94905 1.80586,0.58322 3.64988,1.03226 5.47879,1.53504 5.15406,1.41608 7.15671,-5.87286 2.00265,-7.28895 v 0 c -1.66909,-0.45834 -3.35061,-0.87139 -5.00327,-1.38738 -2.27511,-0.78724 -4.49854,-1.69474 -6.6792,-2.71689 -2.1135,-0.93743 -4.21756,-1.89772 -6.31659,-2.8668 -4.83711,-2.2742 -8.05332,4.56651 -3.2162,6.84071 z" />
  <path
     style="opacity:0.913344;fill:#f23737;fill-opacity:1;fill-rule:nonzero;stroke:none;stroke-width:1.7;stroke-dasharray:none;stroke-opacity:1"
     id="path73"
     d="m 375.87898,152.52308 c 0.46218,1.97885 0.79305,3.97523 0.99119,5.99681 0.32768,1.80567 0.26309,3.71416 0.84619,5.47192 0.12089,0.36439 0.28985,0.71104 0.43477,1.06656 0.53534,0.57561 0.93276,1.32109 1.60603,1.72682 1.55756,0.93864 2.94656,0.79303 4.51875,0.11275 1.20944,-0.52333 2.05026,-1.71957 2.82333,-2.72252 0.93682,-1.08335 1.37952,-2.48803 2.18476,-3.64617 1.21647,-2.01079 0.38316,0.6136 -3.57759,0.55883 -0.78337,-0.0108 -1.44434,-0.91491 -1.92535,-1.53845 0.45972,1.9576 0.56602,3.97337 0.65963,5.97492 0.11615,2.36621 0.0248,4.73756 0.16031,7.10208 0.14491,1.6502 0.26667,3.29994 0.54305,4.93406 0.2097,0.95472 0.49528,1.88879 0.819,2.80986 1.82999,5.02204 8.93221,2.43404 7.10222,-2.58799 v 0 c -0.19608,-0.48489 -0.29928,-0.9998 -0.46996,-1.49392 -0.23661,-1.36911 -0.31509,-2.75483 -0.45021,-4.13728 -0.16786,-2.32184 0.005,-4.66143 -0.15388,-6.98563 -0.12344,-2.56166 -0.28992,-5.13851 -0.92534,-7.6337 -0.46034,-1.2792 -0.91232,-3.25407 -2.6899,-3.51592 -3.26466,-0.48089 -4.27676,0.46621 -5.45992,2.44022 -0.64065,1.02904 -1.12587,2.13932 -1.82594,3.13326 -0.12151,0.16184 -0.25098,0.31801 -0.36455,0.48553 -0.0293,0.0432 -0.11406,0.14809 -0.0621,0.14373 1.34706,-0.11281 -1.22418,-0.81496 1.73146,-0.32593 1.69029,0.27967 1.65712,0.70766 2.59541,1.94614 0.0102,0.0693 0.0675,0.26724 0.0305,0.2078 -0.10242,-0.16459 -0.21487,-0.94809 -0.21988,-0.98318 -0.15637,-1.09561 -0.24992,-2.20057 -0.40933,-3.29591 -0.24624,-2.42331 -0.63874,-4.82078 -1.2084,-7.19049 -1.37589,-5.16494 -8.68021,-3.21914 -7.30433,1.9458 z" />
  <path
     style="opacity:0.913344;fill:#f23737;fill-opacity:1;fill-rule:nonzero;stroke:none;stroke-width:1.7;stroke-dasharray:none;stroke-opacity:1"
     id="path74"
     d="m 421.70066,130.09938 c -1.93714,-2.63614 -3.33031,-5.61208 -4.72469,-8.55602 -1.79636,-3.71919 -3.36442,-7.54388 -4.86913,-11.38869 -1.35807,-3.4887 -2.56793,-7.03085 -3.68638,-10.602714 -1.01776,-3.259092 -2.3342,-6.41473 -3.36558,-9.668355 -0.74611,-2.246177 -1.31455,-4.538921 -1.91095,-6.825808 -0.0654,-0.238381 -0.13069,-0.476763 -0.19604,-0.715145 -1.41446,-5.154508 -8.70403,-3.154158 -7.28957,2.000351 v 0 c 0.0586,0.213297 0.1172,0.426594 0.1758,0.639892 0.64268,2.408049 1.22534,4.832065 2.01951,7.198822 1.03897,3.237671 2.31746,6.391325 3.3536,9.630477 1.17233,3.73889 2.43834,7.44739 3.86118,11.09926 1.57046,4.00654 3.20452,7.99287 5.07688,11.86935 1.65713,3.4942 3.3431,7.01381 5.70196,10.10156 3.38208,4.13899 9.23549,-0.644 5.85341,-4.78298 z" />
  <path
     style="opacity:0.913344;fill:#f23737;fill-opacity:1;fill-rule:nonzero;stroke:none;stroke-width:1.7;stroke-dasharray:none;stroke-opacity:1"
     id="path75"
     d="m 395.05547,82.576447 c -0.0172,3.14303 0.0483,6.286858 -0.0552,9.428537 0.007,1.722698 -0.21936,3.415202 -0.5599,5.096992 -0.0346,0.170993 -0.2619,0.466852 -0.0942,0.514848 2.44071,0.698403 4.96551,1.059677 7.44827,1.589516 0.83841,-2.232109 1.52003,-4.521326 2.12867,-6.825724 0.21594,-0.861732 0.39135,-1.73367 0.5118,-2.613984 0.0466,-0.340852 0.0219,-0.698169 0.13435,-1.023302 0.0264,-0.07627 -0.0175,0.160455 -0.0262,0.240683 -1.87417,2.38023 -0.90033,2.059263 -3.57031,2.482912 -0.12949,0.02054 -0.27929,-0.102726 -0.39173,-0.03531 -0.0665,0.03986 0.0796,0.135459 0.13595,0.188668 0.52573,0.496257 1.08791,0.952516 1.6244,1.437129 2.08189,2.139015 4.06393,4.371755 6.19497,6.464465 1.29004,1.147823 0.69806,0.620573 1.77618,1.581473 3.99035,3.55623 9.01962,-2.086974 5.02927,-5.643204 v 0 c -1.00619,-0.896663 -0.50077,-0.450446 -1.51628,-1.338636 -2.21179,-2.159405 -4.22665,-4.505601 -6.42304,-6.678767 -1.95414,-1.758305 -4.84865,-4.679378 -7.8179,-3.170162 -0.96617,0.491089 -1.48542,1.578655 -2.22814,2.367983 -0.34167,1.26006 -0.43827,2.547432 -0.74362,3.816774 -0.50038,1.910876 -1.0776,3.801454 -1.72139,5.668774 2.29795,0.944003 4.55758,1.987273 6.89384,2.83201 0.10155,0.03672 0.0353,-0.213107 0.0562,-0.319045 0.0817,-0.413403 0.18052,-0.823531 0.25154,-1.238893 0.29141,-1.704319 0.41925,-3.427504 0.46248,-5.154959 0.0992,-3.222045 0.0484,-6.445473 0.059,-9.668781 0,-5.345059 -7.55905,-5.345059 -7.55905,0 z" />
  <path
     style="opacity:0.913344;fill:#f23737;fill-opacity:1;fill-rule:nonzero;stroke:none;stroke-width:1.7;stroke-dasharray:none;stroke-opacity:1"
     id="path76"
     d="m 444.99665,32.971033 c -1.77234,0 -3.54468,0 -5.31701,0 -1.81835,-0.04698 -3.76773,0.104335 -5.17681,1.440258 -1.36234,1.291615 -1.35124,1.843772 -1.86165,3.435535 -0.40805,2.727925 -0.26694,5.502616 -0.22887,8.251615 -0.024,2.711481 0.20638,5.53012 3.04318,6.890569 0.65084,0.312122 1.40979,0.310682 2.11469,0.466024 2.14916,-0.04928 4.04361,-1.071443 6.02289,-1.772547 0.38929,-0.25327 0.93518,-0.09045 0.25369,-0.02791 -0.4925,0.04519 -0.57907,-0.105228 -0.21228,0.333278 0.55156,0.893853 0.62394,1.969527 0.7259,2.988678 0.044,1.687266 -0.17915,3.344153 -0.76459,4.926683 -0.42718,0.659739 -0.72753,1.501445 -1.35422,2.00851 -0.16874,0.136531 -0.385,0.200696 -0.57461,0.306341 -1.00139,0.519157 -2.16747,0.924903 -3.30934,0.896505 0.37519,0.23587 -0.53527,-0.15581 -0.39662,-0.137184 0.6985,0.09384 0.72243,0.301791 0.33021,-0.344087 -0.29988,-0.410274 -0.53877,-0.853464 -0.74914,-1.313815 -2.3422,-4.804554 -9.13687,-1.492177 -6.79467,3.312377 v 0 c 0.40078,0.800887 0.81275,1.594937 1.34122,2.321987 1.76249,2.433135 3.51636,3.701767 6.65733,3.709796 2.47523,-0.182328 4.89413,-0.780262 7.02851,-2.09989 1.01443,-0.687027 1.34738,-0.839113 2.2267,-1.756475 1.20522,-1.257361 2.02145,-2.859988 2.73584,-4.425653 0.89214,-2.66007 1.33742,-5.412953 1.13763,-8.226912 -0.32624,-2.830917 -1.00799,-5.539494 -3.04768,-7.660268 -0.3539,-0.316451 -0.68232,-0.663961 -1.06172,-0.949354 -2.07065,-1.557603 -4.3063,-1.851223 -6.71799,-0.980052 -0.23419,0.08436 -3.26686,1.238969 -3.27218,1.274586 -0.0131,0.08762 0.17085,0.04696 0.25627,0.07043 1.42412,0.589314 1.67977,0.762605 2.0892,2.278126 0.0226,0.08365 -0.0714,-0.160592 -0.0824,-0.246536 -0.066,-0.513826 -0.0609,-1.493195 -0.0675,-1.947937 -0.0292,-2.102883 -0.0721,-4.206758 0.003,-6.309152 -0.5509,0.36583 -0.7704,0.780992 -1.44853,0.902161 -0.12483,0.02231 -0.50263,0.0038 -0.3795,-0.02651 0.18408,-0.04533 1.5173,-0.03012 1.53422,-0.03012 1.77233,0 3.54467,0 5.31701,0 5.34505,0 5.34505,-7.559055 0,-7.559055 z" />
  <path
     style="opacity:0.913344;fill:#f23737;fill-opacity:1;fill-rule:nonzero;stroke:none;stroke-width:1.7;stroke-dasharray:none;stroke-opacity:1"
     id="path77"
     d="m 410.24581,75.010835 c 0.445,0.641021 1.34221,1.96598 1.80644,2.460516 3.55212,3.784074 8.03831,6.409638 12.46382,9.019156 9.39961,5.028224 19.24619,9.172523 29.12826,13.146446 6.92732,2.715477 13.98958,5.069757 21.17752,6.988317 5.84575,1.42619 11.78058,2.47155 17.72456,3.39375 2.97927,0.44607 5.98216,0.78163 8.999,0.62326 1.66287,-0.0873 2.96951,-0.28355 4.62723,-0.49197 5.01646,-0.66376 9.96877,-1.62087 14.86352,-2.89671 4.73692,-1.29642 9.33543,-2.98955 13.7593,-5.11543 3.70609,-1.72902 7.34884,-3.577743 10.89859,-5.608433 2.74745,-1.628579 5.44332,-3.361453 7.91884,-5.383947 1.04206,-0.825767 1.90022,-1.826061 2.6851,-2.889663 3.0967,-4.356616 -3.06448,-8.736012 -6.16118,-4.379397 v 0 c -0.34026,0.557395 -0.83236,1.007216 -1.32367,1.429392 -2.13526,1.769549 -4.50564,3.233546 -6.87562,4.664059 -3.39456,1.946286 -6.88448,3.705595 -10.42967,5.361304 -3.97422,1.931109 -8.12499,3.424957 -12.38274,4.608623 -4.57785,1.199462 -9.21087,2.086572 -13.90349,2.711202 -1.23241,0.15782 -2.59772,0.35649 -3.8477,0.43386 -2.57196,0.15918 -5.12963,-0.16367 -7.66982,-0.53602 -5.67871,-0.8791 -11.3484,-1.8772 -16.93561,-3.227983 -6.89284,-1.834099 -13.66106,-4.100156 -20.30449,-6.697686 -9.53513,-3.8325 -19.03496,-7.828755 -28.11898,-12.650522 -3.07692,-1.800231 -6.06048,-3.588044 -8.83341,-5.838617 -0.49874,-0.404792 -1.01077,-0.798859 -1.45843,-1.259519 -0.35552,-0.36585 -1.11121,-1.47085 -1.46007,-1.968999 -2.90268,-4.488218 -9.24998,-0.383207 -6.3473,4.105011 z" />
  <path
     style="opacity:0.913344;fill:#f23737;fill-opacity:1;fill-rule:nonzero;stroke:none;stroke-width:1.7;stroke-dasharray:none;stroke-opacity:1"
     id="path78"
     d="m 558.19832,79.802999 c -3.2053,-0.747429 -6.44431,-0.382574 -9.66123,0.05184 -2.75591,0.45814 -5.4861,1.060364 -8.26445,1.37149 -1.00925,0.08793 -0.55729,0.07064 -1.35465,0.07726 -5.34357,0.126175 -5.16513,7.683123 0.17844,7.556949 v 0 c 1.34854,-0.04245 0.67143,-0.0017 2.03125,-0.123673 2.8331,-0.326781 5.62552,-0.892706 8.4317,-1.392423 2.38852,-0.330103 4.77157,-0.698934 7.15649,-0.129188 5.24126,1.048252 6.72371,-6.364011 1.48245,-7.412264 z" />
  <path
     style="opacity:0.913344;fill:#f23737;fill-opacity:1;fill-rule:nonzero;stroke:none;stroke-width:1.7;stroke-dasharray:none;stroke-opacity:1"
     id="path79"
     d="m 551.8291,85.349879 c -0.9179,2.986641 -1.78117,5.989222 -2.5943,9.005949 -0.96146,3.444056 -1.80157,6.924902 -1.88595,10.510962 -0.0637,5.34468 7.49477,5.43484 7.55852,0.0902 v 0 c -0.0329,-2.94838 0.94579,-5.799793 1.62633,-8.635066 0.85219,-3.165935 1.79317,-6.305372 2.70075,-9.455385 1.07241,-5.236372 -6.33293,-6.752991 -7.40535,-1.51662 z" />
  <path
     style="opacity:0.913344;fill:#f23737;fill-opacity:1;fill-rule:nonzero;stroke:none;stroke-width:1.7;stroke-dasharray:none;stroke-opacity:1"
     id="path80"
     d="m 633.27628,73.693266 c -1.96601,-0.0794 -3.90664,0.161233 -5.82523,0.56709 -2.06963,0.539759 -4.09553,1.521057 -5.63324,3.041449 -0.35488,0.350887 -0.66201,0.746988 -0.99302,1.120482 -1.81985,2.332358 -2.74321,5.111567 -3.36737,7.961782 -0.4397,2.389477 -0.50972,4.824763 -0.0812,7.220883 0.22724,1.270492 0.49919,2.067093 0.86238,3.290194 0.91964,2.503416 2.16047,4.981294 4.08526,6.874954 0.37675,0.37066 0.79965,0.69129 1.19947,1.03694 2.62237,1.85564 5.6795,2.24121 8.7996,2.0326 2.69233,-0.28461 4.97663,-1.51123 6.50502,-3.78037 0.25826,-0.38342 0.44778,-0.80889 0.67167,-1.21334 0.6474,-1.72329 1.31084,-3.689911 1.08747,-5.57287 -0.0629,-0.530582 -0.21573,-1.0466 -0.3236,-1.5699 -0.40861,-0.644146 -0.72662,-1.355657 -1.22583,-1.932437 -1.7109,-1.976747 -4.88039,-2.571217 -7.31946,-2.962039 -2.12935,-0.255494 -4.27969,-0.384047 -6.42363,-0.30259 -5.33942,0.245611 -4.99207,7.796682 0.34734,7.55107 v 0 c 1.63863,-0.102552 3.29089,0.07718 4.92113,0.221789 0.68377,0.09995 1.08538,0.141979 1.74576,0.29856 0.21873,0.05186 0.4322,0.123848 0.64884,0.18382 0.11668,0.0323 0.23068,0.105482 0.35111,0.09299 0.0439,-0.0046 0.012,-0.08753 0.018,-0.131289 -0.10438,-0.293313 -0.20876,-0.586626 -0.31314,-0.87994 0.0521,-1.377328 -0.0108,1.337815 -0.22591,1.52576 -0.1193,0.320438 -0.10241,0.203187 -0.12814,0.450756 -0.004,0.04111 -0.0315,0.08766 -0.0109,0.123516 0.0226,0.0394 0.15794,0.04166 0.11938,0.06564 -0.20098,0.125006 -0.85249,0.249984 -1.06196,0.297022 -1.13704,0.133255 -2.29619,0.08852 -3.3747,-0.331572 -1.43052,-1.019013 -2.22015,-2.666041 -2.85473,-4.258466 -0.69965,-2.280641 -1.13092,-4.378553 -0.62296,-6.771669 0.32614,-1.64694 0.80664,-3.279524 1.77284,-4.676338 0.53912,-0.841027 1.49153,-1.35375 2.43071,-1.620962 1.38795,-0.315054 2.79371,-0.458803 4.21898,-0.394461 5.34506,0 5.34506,-7.559055 0,-7.559055 z" />
</svg>
