<svg xmlns="http://www.w3.org/2000/svg" xmlns:xlink="http://www.w3.org/1999/xlink" xmlns:lucid="lucid" width="402" height="323.27"><g transform="translate(-2479 -381.09605166894573)" lucid:page-tab-id="HWEp-vi-RSFO"><path d="M2500 408.1a6 6 0 0 1 6-6h138a6 6 0 0 1 6 6v38a6 6 0 0 1-6 6h-138a6 6 0 0 1-6-6z" stroke="#3a414a" stroke-width="2" fill="#fff0fb"/><use xlink:href="#a" transform="matrix(1,0,0,1,2508,410.09605166894573) translate(20.179012345679013 21.444444444444443)"/><use xlink:href="#b" transform="matrix(1,0,0,1,2508,410.09605166894573) translate(39.9320987654321 21.444444444444443)"/><path d="M2710 408.1a6 6 0 0 1 6-6h138a6 6 0 0 1 6 6v38a6 6 0 0 1-6 6h-138a6 6 0 0 1-6-6z" stroke="#3a414a" stroke-width="2" fill="#fff3d9"/><use xlink:href="#c" transform="matrix(1,0,0,1,2718,410.09605166894573) translate(22.648148148148145 21.444444444444443)"/><path d="M2500 537.18a6 6 0 0 1 6-6h138a6 6 0 0 1 6 6v38a6 6 0 0 1-6 6h-138a6 6 0 0 1-6-6z" stroke="#3a414a" stroke-width="2" fill="#e3fae3"/><use xlink:href="#d" transform="matrix(1,0,0,1,2508,539.1809127500535) translate(27.586419753086417 21.444444444444443)"/><use xlink:href="#e" transform="matrix(1,0,0,1,2508,539.1809127500535) translate(49.74691358024691 21.444444444444443)"/><use xlink:href="#f" transform="matrix(1,0,0,1,2508,539.1809127500535) translate(84.25308641975309 21.444444444444443)"/><path d="M2710 537.18a6 6 0 0 1 6-6h138a6 6 0 0 1 6 6v38a6 6 0 0 1-6 6h-138a6 6 0 0 1-6-6z" stroke="#3a414a" stroke-width="2" fill="#edf5ff"/><use xlink:href="#g" transform="matrix(1,0,0,1,2718,539.1809127500535) translate(27.586419753086417 21.444444444444443)"/><use xlink:href="#h" transform="matrix(1,0,0,1,2718,539.1809127500535) translate(49.74691358024691 21.444444444444443)"/><use xlink:href="#i" transform="matrix(1,0,0,1,2718,539.1809127500535) translate(84.25308641975309 21.444444444444443)"/><path d="M2590 639.36a6 6 0 0 1 6-6h138a6 6 0 0 1 6 6v38a6 6 0 0 1-6 6h-138a6 6 0 0 1-6-6z" stroke="#3a414a" stroke-width="2" fill="#fcfcca"/><use xlink:href="#j" transform="matrix(1,0,0,1,2598,641.3617490353629) translate(30.086419753086425 21.444444444444443)"/><use xlink:href="#k" transform="matrix(1,0,0,1,2598,641.3617490353629) translate(51.074074074074076 21.444444444444443)"/><path d="M2575 529.68v-60.2" stroke="#333" fill="none"/><path d="M2575.47 530.18h-.94v-.5h.94z" stroke="#333" stroke-width=".05" fill="#333"/><path d="M2575 454.7l4.64 14.28h-9.28z" stroke="#333" fill="#333"/><path d="M2575 529.68v-15.15a12 12 0 0 1 12-12h149.48a12 12 0 0 0 12-12v-21.05" stroke="#333" fill="none"/><path d="M2575.47 530.18h-.94v-.5h.94z" stroke="#333" stroke-width=".05" fill="#333"/><path d="M2748.48 454.7l4.63 14.28h-9.26z" stroke="#333" fill="#333"/><path d="M2785 529.68a8.94 8.94 0 0 0-8.94-8.94h-152.54a12 12 0 0 1-12-12v-39.26" stroke="#333" fill="none"/><path d="M2785.47 530.18h-.94v-.5h.94z" stroke="#333" stroke-width=".05" fill="#333"/><path d="M2611.52 454.7l4.64 14.28h-9.27z" stroke="#333" fill="#333"/><path d="M2785 529.68v-60.2" stroke="#333" fill="none"/><path d="M2785.47 530.18h-.94v-.5h.94z" stroke="#333" stroke-width=".05" fill="#333"/><path d="M2785 454.7l4.64 14.28h-9.28z" stroke="#333" fill="#333"/><path d="M2665 631.86v-12.6a12 12 0 0 0-12-12h-69.3a8.7 8.7 0 0 1-8.7-8.7" stroke="#333" fill="none"/><path d="M2665.47 632.36h-.94v-.5h.94z" stroke="#333" stroke-width=".05" fill="#333"/><path d="M2575 583.8l4.64 14.27h-9.28z" stroke="#333" fill="#333"/><path d="M2665 631.86v-12.6a12 12 0 0 1 12-12h99.3a8.7 8.7 0 0 0 8.7-8.7" stroke="#333" fill="none"/><path d="M2665.47 632.36h-.94v-.5h.94z" stroke="#333" stroke-width=".05" fill="#333"/><path d="M2785 583.8l4.64 14.27h-9.28z" stroke="#333" fill="#333"/><defs><path d="M205 0l-28-72H64L36 0H1l101-248h38L239 0h-34zm-38-99l-47-123c-12 45-31 82-46 123h93" id="l"/><use transform="matrix(0.06172839506172839,0,0,0.06172839506172839,0,0)" xlink:href="#l" id="a"/><path d="M87 75C49 33 22-17 22-94c0-76 28-126 65-167h31c-38 41-64 92-64 168S80 34 118 75H87" id="m"/><path d="M100-194c62-1 85 37 85 99 1 63-27 99-86 99S16-35 15-95c0-66 28-99 85-99zM99-20c44 1 53-31 53-75 0-43-8-75-51-75s-53 32-53 75 10 74 51 75" id="n"/><path d="M115-194c53 0 69 39 70 98 0 66-23 100-70 100C84 3 66-7 56-30L54 0H23l1-261h32v101c10-23 28-34 59-34zm-8 174c40 0 45-34 45-75 0-40-5-75-45-74-42 0-51 32-51 76 0 43 10 73 51 73" id="o"/><path d="M24-231v-30h32v30H24zM-9 49c24 4 33-6 33-30v-209h32V24c2 40-23 58-65 49V49" id="p"/><path d="M100-194c63 0 86 42 84 106H49c0 40 14 67 53 68 26 1 43-12 49-29l28 8c-11 28-37 45-77 45C44 4 14-33 15-96c1-61 26-98 85-98zm52 81c6-60-76-77-97-28-3 7-6 17-6 28h103" id="q"/><path d="M96-169c-40 0-48 33-48 73s9 75 48 75c24 0 41-14 43-38l32 2c-6 37-31 61-74 61-59 0-76-41-82-99-10-93 101-131 147-64 4 7 5 14 7 22l-32 3c-4-21-16-35-41-35" id="r"/><path d="M59-47c-2 24 18 29 38 22v24C64 9 27 4 27-40v-127H5v-23h24l9-43h21v43h35v23H59v120" id="s"/><path d="M33-261c38 41 65 92 65 168S71 34 33 75H2C39 34 66-17 66-93S39-220 2-261h31" id="t"/><g id="b"><use transform="matrix(0.06172839506172839,0,0,0.06172839506172839,0,0)" xlink:href="#m"/><use transform="matrix(0.06172839506172839,0,0,0.06172839506172839,7.345679012345679,0)" xlink:href="#n"/><use transform="matrix(0.06172839506172839,0,0,0.06172839506172839,19.691358024691358,0)" xlink:href="#o"/><use transform="matrix(0.06172839506172839,0,0,0.06172839506172839,32.03703703703704,0)" xlink:href="#p"/><use transform="matrix(0.06172839506172839,0,0,0.06172839506172839,36.91358024691358,0)" xlink:href="#q"/><use transform="matrix(0.06172839506172839,0,0,0.06172839506172839,49.25925925925926,0)" xlink:href="#r"/><use transform="matrix(0.06172839506172839,0,0,0.06172839506172839,60.37037037037037,0)" xlink:href="#s"/><use transform="matrix(0.06172839506172839,0,0,0.06172839506172839,66.5432098765432,0)" xlink:href="#t"/></g><path d="M160-131c35 5 61 23 61 61C221 17 115-2 30 0v-248c76 3 177-17 177 60 0 33-19 50-47 57zm-97-11c50-1 110 9 110-42 0-47-63-36-110-37v79zm0 115c55-2 124 14 124-45 0-56-70-42-124-44v89" id="u"/><g id="c"><use transform="matrix(0.06172839506172839,0,0,0.06172839506172839,0,0)" xlink:href="#u"/><use transform="matrix(0.06172839506172839,0,0,0.06172839506172839,14.814814814814813,0)" xlink:href="#m"/><use transform="matrix(0.06172839506172839,0,0,0.06172839506172839,22.160493827160494,0)" xlink:href="#n"/><use transform="matrix(0.06172839506172839,0,0,0.06172839506172839,34.50617283950617,0)" xlink:href="#o"/><use transform="matrix(0.06172839506172839,0,0,0.06172839506172839,46.85185185185185,0)" xlink:href="#p"/><use transform="matrix(0.06172839506172839,0,0,0.06172839506172839,51.72839506172839,0)" xlink:href="#q"/><use transform="matrix(0.06172839506172839,0,0,0.06172839506172839,64.07407407407408,0)" xlink:href="#r"/><use transform="matrix(0.06172839506172839,0,0,0.06172839506172839,75.18518518518519,0)" xlink:href="#s"/><use transform="matrix(0.06172839506172839,0,0,0.06172839506172839,81.35802469135803,0)" xlink:href="#t"/></g><path d="M212-179c-10-28-35-45-73-45-59 0-87 40-87 99 0 60 29 101 89 101 43 0 62-24 78-52l27 14C228-24 195 4 139 4 59 4 22-46 18-125c-6-104 99-153 187-111 19 9 31 26 39 46" id="v"/><use transform="matrix(0.06172839506172839,0,0,0.06172839506172839,0,0)" xlink:href="#v" id="d"/><path d="M68-38c1 34 0 65-14 84H32c9-13 17-26 17-46H33v-38h35" id="w"/><g id="e"><use transform="matrix(0.06172839506172839,0,0,0.06172839506172839,0,0)" xlink:href="#m"/><use transform="matrix(0.06172839506172839,0,0,0.06172839506172839,7.345679012345679,0)" xlink:href="#l"/><use transform="matrix(0.06172839506172839,0,0,0.06172839506172839,22.160493827160494,0)" xlink:href="#w"/></g><g id="f"><use transform="matrix(0.06172839506172839,0,0,0.06172839506172839,0,0)" xlink:href="#u"/><use transform="matrix(0.06172839506172839,0,0,0.06172839506172839,14.814814814814813,0)" xlink:href="#t"/></g><path d="M30-248c118-7 216 8 213 122C240-48 200 0 122 0H30v-248zM63-27c89 8 146-16 146-99s-60-101-146-95v194" id="x"/><use transform="matrix(0.06172839506172839,0,0,0.06172839506172839,0,0)" xlink:href="#x" id="g"/><g id="h"><use transform="matrix(0.06172839506172839,0,0,0.06172839506172839,0,0)" xlink:href="#m"/><use transform="matrix(0.06172839506172839,0,0,0.06172839506172839,7.345679012345679,0)" xlink:href="#u"/><use transform="matrix(0.06172839506172839,0,0,0.06172839506172839,22.160493827160494,0)" xlink:href="#w"/></g><g id="i"><use transform="matrix(0.06172839506172839,0,0,0.06172839506172839,0,0)" xlink:href="#l"/><use transform="matrix(0.06172839506172839,0,0,0.06172839506172839,14.814814814814813,0)" xlink:href="#t"/></g><path d="M30 0v-248h187v28H63v79h144v27H63v87h162V0H30" id="y"/><use transform="matrix(0.06172839506172839,0,0,0.06172839506172839,0,0)" xlink:href="#y" id="j"/><g id="k"><use transform="matrix(0.06172839506172839,0,0,0.06172839506172839,0,0)" xlink:href="#m"/><use transform="matrix(0.06172839506172839,0,0,0.06172839506172839,7.345679012345679,0)" xlink:href="#v"/><use transform="matrix(0.06172839506172839,0,0,0.06172839506172839,23.333333333333332,0)" xlink:href="#w"/><use transform="matrix(0.06172839506172839,0,0,0.06172839506172839,29.50617283950617,0)" xlink:href="#x"/><use transform="matrix(0.06172839506172839,0,0,0.06172839506172839,45.49382716049382,0)" xlink:href="#t"/></g></defs></g></svg>