<svg xmlns="http://www.w3.org/2000/svg" xmlns:xlink="http://www.w3.org/1999/xlink" xmlns:lucid="lucid" width="692" height="334.67"><g transform="translate(-2379 -337.66666666666663)" lucid:page-tab-id="HWEp-vi-RSFO"><path d="M2400 364.67a6 6 0 0 1 6-6h138a6 6 0 0 1 6 6v38a6 6 0 0 1-6 6h-138a6 6 0 0 1-6-6z" stroke="#3a414a" stroke-width="2" fill="#fff3d9"/><use xlink:href="#a" transform="matrix(1,0,0,1,2408,366.66666666666663) translate(59.592592592592595 21.444444444444443)"/><path d="M2650 364.67a6 6 0 0 1 6-6h138a6 6 0 0 1 6 6v38a6 6 0 0 1-6 6h-138a6 6 0 0 1-6-6z" stroke="#3a414a" stroke-width="2" fill="#fff3d9"/><use xlink:href="#b" transform="matrix(1,0,0,1,2658,366.66666666666663) translate(59.592592592592595 21.444444444444443)"/><path d="M2900 364.67a6 6 0 0 1 6-6h138a6 6 0 0 1 6 6v38a6 6 0 0 1-6 6h-138a6 6 0 0 1-6-6z" stroke="#3a414a" stroke-width="2" fill="#fff3d9"/><use xlink:href="#c" transform="matrix(1,0,0,1,2908,366.66666666666663) translate(59.00617283950617 21.444444444444443)"/><path d="M2520 486a6 6 0 0 1 6-6h138a6 6 0 0 1 6 6v38a6 6 0 0 1-6 6h-138a6 6 0 0 1-6-6z" stroke="#3a414a" stroke-width="2" fill="#e3fae3"/><use xlink:href="#d" transform="matrix(1,0,0,1,2528,488) translate(30.672839506172842 21.444444444444443)"/><use xlink:href="#e" transform="matrix(1,0,0,1,2528,488) translate(52.833333333333336 21.444444444444443)"/><path d="M2780 486a6 6 0 0 1 6-6h138a6 6 0 0 1 6 6v38a6 6 0 0 1-6 6h-138a6 6 0 0 1-6-6z" stroke="#3a414a" stroke-width="2" fill="#e3fae3"/><use xlink:href="#f" transform="matrix(1,0,0,1,2788,488) translate(30.672839506172842 21.444444444444443)"/><use xlink:href="#g" transform="matrix(1,0,0,1,2788,488) translate(51.660493827160494 21.444444444444443)"/><path d="M2595 478.5v-22.17a12 12 0 0 1 12-12h81a12 12 0 0 0 12-12v-6.28" stroke="#333" fill="none"/><path d="M2595.47 479h-.94v-.5h.94z" stroke="#333" stroke-width=".05" fill="#333"/><path d="M2700 411.3l4.64 14.25h-9.28z" stroke="#333" fill="#333"/><path d="M2595 478.5v-22.17a12 12 0 0 0-12-12h-96a12 12 0 0 1-12-12v-6.28" stroke="#333" fill="none"/><path d="M2595.47 479h-.94v-.5h.94z" stroke="#333" stroke-width=".05" fill="#333"/><path d="M2475 411.3l4.64 14.25h-9.28z" stroke="#333" fill="#333"/><path d="M2855 478.5v-22.17a12 12 0 0 0-12-12h-81.67a12 12 0 0 1-12-12v-6.28" stroke="#333" fill="none"/><path d="M2855.47 479h-.94v-.5h.94z" stroke="#333" stroke-width=".05" fill="#333"/><path d="M2749.33 411.3l4.64 14.25h-9.27z" stroke="#333" fill="#333"/><path d="M2855 478.5v-22.17a12 12 0 0 1 12-12h75.67a12 12 0 0 0 12-12v-6.28" stroke="#333" fill="none"/><path d="M2855.47 479h-.94v-.5h.94z" stroke="#333" stroke-width=".05" fill="#333"/><path d="M2954.67 411.3l4.63 14.25h-9.27z" stroke="#333" fill="#333"/><path d="M2650 607.33a6 6 0 0 1 6-6h138a6 6 0 0 1 6 6v38a6 6 0 0 1-6 6h-138a6 6 0 0 1-6-6z" stroke="#3a414a" stroke-width="2" fill="#fff0f0"/><use xlink:href="#h" transform="matrix(1,0,0,1,2658,609.3333333333334) translate(31.320987654320987 21.444444444444443)"/><use xlink:href="#i" transform="matrix(1,0,0,1,2658,609.3333333333334) translate(51.01234567901234 21.444444444444443)"/><path d="M2725 599.83v-22.16a12 12 0 0 1 12-12h106a12 12 0 0 0 12-12v-6.3" stroke="#333" fill="none"/><path d="M2725.47 600.33h-.94v-.5h.94z" stroke="#333" stroke-width=".05" fill="#333"/><path d="M2855 532.62l4.64 14.26h-9.28z" stroke="#333" fill="#333"/><path d="M2725 599.83v-22.16a12 12 0 0 0-12-12h-106a12 12 0 0 1-12-12v-6.3" stroke="#333" fill="none"/><path d="M2725.47 600.33h-.94v-.5h.94z" stroke="#333" stroke-width=".05" fill="#333"/><path d="M2595 532.62l4.64 14.26h-9.28z" stroke="#333" fill="#333"/><defs><path d="M205 0l-28-72H64L36 0H1l101-248h38L239 0h-34zm-38-99l-47-123c-12 45-31 82-46 123h93" id="j"/><use transform="matrix(0.06172839506172839,0,0,0.06172839506172839,0,0)" xlink:href="#j" id="a"/><path d="M160-131c35 5 61 23 61 61C221 17 115-2 30 0v-248c76 3 177-17 177 60 0 33-19 50-47 57zm-97-11c50-1 110 9 110-42 0-47-63-36-110-37v79zm0 115c55-2 124 14 124-45 0-56-70-42-124-44v89" id="k"/><use transform="matrix(0.06172839506172839,0,0,0.06172839506172839,0,0)" xlink:href="#k" id="b"/><path d="M212-179c-10-28-35-45-73-45-59 0-87 40-87 99 0 60 29 101 89 101 43 0 62-24 78-52l27 14C228-24 195 4 139 4 59 4 22-46 18-125c-6-104 99-153 187-111 19 9 31 26 39 46" id="l"/><use transform="matrix(0.06172839506172839,0,0,0.06172839506172839,0,0)" xlink:href="#l" id="c"/><path d="M30-248c118-7 216 8 213 122C240-48 200 0 122 0H30v-248zM63-27c89 8 146-16 146-99s-60-101-146-95v194" id="m"/><use transform="matrix(0.06172839506172839,0,0,0.06172839506172839,0,0)" xlink:href="#m" id="d"/><path d="M87 75C49 33 22-17 22-94c0-76 28-126 65-167h31c-38 41-64 92-64 168S80 34 118 75H87" id="n"/><path d="M68-38c1 34 0 65-14 84H32c9-13 17-26 17-46H33v-38h35" id="o"/><path d="M33-261c38 41 65 92 65 168S71 34 33 75H2C39 34 66-17 66-93S39-220 2-261h31" id="p"/><g id="e"><use transform="matrix(0.06172839506172839,0,0,0.06172839506172839,0,0)" xlink:href="#n"/><use transform="matrix(0.06172839506172839,0,0,0.06172839506172839,7.345679012345679,0)" xlink:href="#j"/><use transform="matrix(0.06172839506172839,0,0,0.06172839506172839,22.160493827160494,0)" xlink:href="#o"/><use transform="matrix(0.06172839506172839,0,0,0.06172839506172839,28.333333333333332,0)" xlink:href="#k"/><use transform="matrix(0.06172839506172839,0,0,0.06172839506172839,43.148148148148145,0)" xlink:href="#p"/></g><path d="M30 0v-248h187v28H63v79h144v27H63v87h162V0H30" id="q"/><use transform="matrix(0.06172839506172839,0,0,0.06172839506172839,0,0)" xlink:href="#q" id="f"/><g id="g"><use transform="matrix(0.06172839506172839,0,0,0.06172839506172839,0,0)" xlink:href="#n"/><use transform="matrix(0.06172839506172839,0,0,0.06172839506172839,7.345679012345679,0)" xlink:href="#k"/><use transform="matrix(0.06172839506172839,0,0,0.06172839506172839,22.160493827160494,0)" xlink:href="#o"/><use transform="matrix(0.06172839506172839,0,0,0.06172839506172839,28.333333333333332,0)" xlink:href="#l"/><use transform="matrix(0.06172839506172839,0,0,0.06172839506172839,44.32098765432099,0)" xlink:href="#p"/></g><path d="M63-220v92h138v28H63V0H30v-248h175v28H63" id="r"/><use transform="matrix(0.06172839506172839,0,0,0.06172839506172839,0,0)" xlink:href="#r" id="h"/><g id="i"><use transform="matrix(0.06172839506172839,0,0,0.06172839506172839,0,0)" xlink:href="#n"/><use transform="matrix(0.06172839506172839,0,0,0.06172839506172839,7.345679012345679,0)" xlink:href="#m"/><use transform="matrix(0.06172839506172839,0,0,0.06172839506172839,23.333333333333332,0)" xlink:href="#o"/><use transform="matrix(0.06172839506172839,0,0,0.06172839506172839,29.50617283950617,0)" xlink:href="#q"/><use transform="matrix(0.06172839506172839,0,0,0.06172839506172839,44.32098765432099,0)" xlink:href="#p"/></g></defs></g></svg>