<?xml version="1.0" encoding="UTF-8" standalone="no"?>
<svg
   width="402"
   height="323.27"
   version="1.1"
   id="svg59"
   sodipodi:docname="front.svg"
   inkscape:version="1.3.1 (9b9bdc1480, 2023-11-25, custom)"
   xmlns:inkscape="http://www.inkscape.org/namespaces/inkscape"
   xmlns:sodipodi="http://sodipodi.sourceforge.net/DTD/sodipodi-0.dtd"
   xmlns:xlink="http://www.w3.org/1999/xlink"
   xmlns="http://www.w3.org/2000/svg"
   xmlns:svg="http://www.w3.org/2000/svg"
   xmlns:lucid="lucid">
  <defs
     id="defs60" />
  <sodipodi:namedview
     id="namedview59"
     pagecolor="#ffffff"
     bordercolor="#000000"
     borderopacity="0.25"
     inkscape:showpageshadow="2"
     inkscape:pageopacity="0.0"
     inkscape:pagecheckerboard="0"
     inkscape:deskcolor="#d1d1d1"
     inkscape:zoom="2.7407431"
     inkscape:cx="207.4255"
     inkscape:cy="149.2296"
     inkscape:window-width="1920"
     inkscape:window-height="1131"
     inkscape:window-x="0"
     inkscape:window-y="0"
     inkscape:window-maximized="1"
     inkscape:current-layer="svg59" />
  <g
     transform="matrix(0.37382192,0,0,0.37382192,-800.84275,-41.249376)"
     lucid:page-tab-id="HWEp-vi-RSFO"
     id="g59">
    <path
       d="m 2500,408.1 a 6,6 0 0 1 6,-6 h 138 a 6,6 0 0 1 6,6 v 38 a 6,6 0 0 1 -6,6 h -138 a 6,6 0 0 1 -6,-6 z"
       stroke="#3a414a"
       stroke-width="2"
       fill="#fff0fb"
       id="path1" />
    <use
       xlink:href="#a"
       transform="translate(2528.179,431.5405)"
       id="use1" />
    <use
       xlink:href="#b"
       transform="translate(2547.9321,431.5405)"
       id="use2" />
    <path
       d="m 2710,408.1 a 6,6 0 0 1 6,-6 h 138 a 6,6 0 0 1 6,6 v 38 a 6,6 0 0 1 -6,6 h -138 a 6,6 0 0 1 -6,-6 z"
       stroke="#3a414a"
       stroke-width="2"
       fill="#fff3d9"
       id="path2" />
    <use
       xlink:href="#c"
       transform="translate(2740.6481,431.5405)"
       id="use3" />
    <path
       d="m 2500,537.18 a 6,6 0 0 1 6,-6 h 138 a 6,6 0 0 1 6,6 v 38 a 6,6 0 0 1 -6,6 h -138 a 6,6 0 0 1 -6,-6 z"
       stroke="#3a414a"
       stroke-width="2"
       fill="#e3fae3"
       id="path3" />
    <use
       xlink:href="#d"
       transform="translate(2535.5864,560.62536)"
       id="use4" />
    <use
       xlink:href="#e"
       transform="translate(2557.7469,560.62536)"
       id="use5" />
    <use
       xlink:href="#f"
       transform="translate(2592.2531,560.62536)"
       id="use6" />
    <path
       d="m 2710,537.18 a 6,6 0 0 1 6,-6 h 138 a 6,6 0 0 1 6,6 v 38 a 6,6 0 0 1 -6,6 h -138 a 6,6 0 0 1 -6,-6 z"
       stroke="#3a414a"
       stroke-width="2"
       fill="#edf5ff"
       id="path6" />
    <use
       xlink:href="#g"
       transform="translate(2745.5864,560.62536)"
       id="use7" />
    <use
       xlink:href="#h"
       transform="translate(2767.7469,560.62536)"
       id="use8" />
    <use
       xlink:href="#i"
       transform="translate(2802.2531,560.62536)"
       id="use9" />
    <path
       d="m 2590,639.36 a 6,6 0 0 1 6,-6 h 138 a 6,6 0 0 1 6,6 v 38 a 6,6 0 0 1 -6,6 h -138 a 6,6 0 0 1 -6,-6 z"
       stroke="#3a414a"
       stroke-width="2"
       fill="#fcfcca"
       id="path9" />
    <use
       xlink:href="#j"
       transform="translate(2628.0864,662.80619)"
       id="use10" />
    <use
       xlink:href="#k"
       transform="translate(2649.0741,662.80619)"
       id="use11" />
    <path
       d="m 2575,529.68 v -60.2"
       stroke="#333333"
       fill="none"
       id="path11" />
    <path
       d="m 2575.47,530.18 h -0.94 v -0.5 h 0.94 z"
       stroke="#333333"
       stroke-width="0.05"
       fill="#333333"
       id="path12" />
    <path
       d="m 2575,454.7 4.64,14.28 h -9.28 z"
       stroke="#333333"
       fill="#333333"
       id="path13" />
    <path
       d="m 2575,529.68 v -15.15 a 12,12 0 0 1 12,-12 h 149.48 a 12,12 0 0 0 12,-12 v -21.05"
       stroke="#333333"
       fill="none"
       id="path14" />
    <path
       d="m 2575.47,530.18 h -0.94 v -0.5 h 0.94 z"
       stroke="#333333"
       stroke-width="0.05"
       fill="#333333"
       id="path15" />
    <path
       d="m 2748.48,454.7 4.63,14.28 h -9.26 z"
       stroke="#333333"
       fill="#333333"
       id="path16" />
    <path
       d="m 2785,529.68 a 8.94,8.94 0 0 0 -8.94,-8.94 h -152.54 a 12,12 0 0 1 -12,-12 v -39.26"
       stroke="#333333"
       fill="none"
       id="path17" />
    <path
       d="m 2785.47,530.18 h -0.94 v -0.5 h 0.94 z"
       stroke="#333333"
       stroke-width="0.05"
       fill="#333333"
       id="path18" />
    <path
       d="m 2611.52,454.7 4.64,14.28 h -9.27 z"
       stroke="#333333"
       fill="#333333"
       id="path19" />
    <path
       d="m 2785,529.68 v -60.2"
       stroke="#333333"
       fill="none"
       id="path20" />
    <path
       d="m 2785.47,530.18 h -0.94 v -0.5 h 0.94 z"
       stroke="#333333"
       stroke-width="0.05"
       fill="#333333"
       id="path21" />
    <path
       d="m 2785,454.7 4.64,14.28 h -9.28 z"
       stroke="#333333"
       fill="#333333"
       id="path22" />
    <path
       d="m 2665,631.86 v -12.6 a 12,12 0 0 0 -12,-12 h -69.3 a 8.7,8.7 0 0 1 -8.7,-8.7"
       stroke="#333333"
       fill="none"
       id="path23" />
    <path
       d="m 2665.47,632.36 h -0.94 v -0.5 h 0.94 z"
       stroke="#333333"
       stroke-width="0.05"
       fill="#333333"
       id="path24" />
    <path
       d="m 2575,583.8 4.64,14.27 h -9.28 z"
       stroke="#333333"
       fill="#333333"
       id="path25" />
    <path
       d="m 2665,631.86 v -12.6 a 12,12 0 0 1 12,-12 h 99.3 a 8.7,8.7 0 0 0 8.7,-8.7"
       stroke="#333333"
       fill="none"
       id="path26" />
    <path
       d="m 2665.47,632.36 h -0.94 v -0.5 h 0.94 z"
       stroke="#333333"
       stroke-width="0.05"
       fill="#333333"
       id="path27" />
    <path
       d="m 2785,583.8 4.64,14.27 h -9.28 z"
       stroke="#333333"
       fill="#333333"
       id="path28" />
    <defs
       id="defs59">
      <path
         d="M 205,0 177,-72 H 64 L 36,0 H 1 l 101,-248 h 38 L 239,0 Z m -38,-99 -47,-123 c -12,45 -31,82 -46,123 h 93"
         id="l" />
      <use
         transform="scale(0.0617284)"
         xlink:href="#l"
         id="a" />
      <path
         d="M 87,75 C 49,33 22,-17 22,-94 c 0,-76 28,-126 65,-167 h 31 c -38,41 -64,92 -64,168 0,76 26,127 64,168 H 87"
         id="m" />
      <path
         d="m 100,-194 c 62,-1 85,37 85,99 1,63 -27,99 -86,99 -59,0 -83,-39 -84,-99 0,-66 28,-99 85,-99 z m -1,174 c 44,1 53,-31 53,-75 0,-43 -8,-75 -51,-75 -43,0 -53,32 -53,75 0,43 10,74 51,75"
         id="n" />
      <path
         d="m 115,-194 c 53,0 69,39 70,98 C 185,-30 162,4 115,4 84,3 66,-7 56,-30 L 54,0 H 23 l 1,-261 h 32 v 101 c 10,-23 28,-34 59,-34 z m -8,174 c 40,0 45,-34 45,-75 0,-40 -5,-75 -45,-74 -42,0 -51,32 -51,76 0,43 10,73 51,73"
         id="o" />
      <path
         d="m 24,-231 v -30 h 32 v 30 z M -9,49 C 15,53 24,43 24,19 V -190 H 56 V 24 C 58,64 33,82 -9,73 V 49"
         id="p" />
      <path
         d="m 100,-194 c 63,0 86,42 84,106 H 49 c 0,40 14,67 53,68 26,1 43,-12 49,-29 l 28,8 C 168,-13 142,4 102,4 44,4 14,-33 15,-96 c 1,-61 26,-98 85,-98 z m 52,81 c 6,-60 -76,-77 -97,-28 -3,7 -6,17 -6,28 h 103"
         id="q" />
      <path
         d="m 96,-169 c -40,0 -48,33 -48,73 0,40 9,75 48,75 24,0 41,-14 43,-38 l 32,2 C 165,-20 140,4 97,4 38,4 21,-37 15,-95 c -10,-93 101,-131 147,-64 4,7 5,14 7,22 l -32,3 c -4,-21 -16,-35 -41,-35"
         id="r" />
      <path
         d="m 59,-47 c -2,24 18,29 38,22 V -1 C 64,9 27,4 27,-40 V -167 H 5 v -23 h 24 l 9,-43 h 21 v 43 h 35 v 23 H 59 v 120"
         id="s" />
      <path
         d="m 33,-261 c 38,41 65,92 65,168 C 98,-17 71,34 33,75 H 2 C 39,34 66,-17 66,-93 66,-169 39,-220 2,-261 h 31"
         id="t" />
      <g
         id="b">
        <use
           transform="scale(0.0617284)"
           xlink:href="#m"
           id="use28" />
        <use
           transform="matrix(0.0617284,0,0,0.0617284,7.345679,0)"
           xlink:href="#n"
           id="use29" />
        <use
           transform="matrix(0.0617284,0,0,0.0617284,19.691358,0)"
           xlink:href="#o"
           id="use30" />
        <use
           transform="matrix(0.0617284,0,0,0.0617284,32.037037,0)"
           xlink:href="#p"
           id="use31" />
        <use
           transform="matrix(0.0617284,0,0,0.0617284,36.91358,0)"
           xlink:href="#q"
           id="use32" />
        <use
           transform="matrix(0.0617284,0,0,0.0617284,49.259259,0)"
           xlink:href="#r"
           id="use33" />
        <use
           transform="matrix(0.0617284,0,0,0.0617284,60.37037,0)"
           xlink:href="#s"
           id="use34" />
        <use
           transform="matrix(0.0617284,0,0,0.0617284,66.54321,0)"
           xlink:href="#t"
           id="use35" />
      </g>
      <path
         d="m 160,-131 c 35,5 61,23 61,61 0,87 -106,68 -191,70 v -248 c 76,3 177,-17 177,60 0,33 -19,50 -47,57 z m -97,-11 c 50,-1 110,9 110,-42 0,-47 -63,-36 -110,-37 z m 0,115 c 55,-2 124,14 124,-45 0,-56 -70,-42 -124,-44 v 89"
         id="u" />
      <g
         id="c">
        <use
           transform="scale(0.0617284)"
           xlink:href="#u"
           id="use36" />
        <use
           transform="matrix(0.0617284,0,0,0.0617284,14.814815,0)"
           xlink:href="#m"
           id="use37" />
        <use
           transform="matrix(0.0617284,0,0,0.0617284,22.160494,0)"
           xlink:href="#n"
           id="use38" />
        <use
           transform="matrix(0.0617284,0,0,0.0617284,34.506173,0)"
           xlink:href="#o"
           id="use39" />
        <use
           transform="matrix(0.0617284,0,0,0.0617284,46.851852,0)"
           xlink:href="#p"
           id="use40" />
        <use
           transform="matrix(0.0617284,0,0,0.0617284,51.728395,0)"
           xlink:href="#q"
           id="use41" />
        <use
           transform="matrix(0.0617284,0,0,0.0617284,64.074074,0)"
           xlink:href="#r"
           id="use42" />
        <use
           transform="matrix(0.0617284,0,0,0.0617284,75.185185,0)"
           xlink:href="#s"
           id="use43" />
        <use
           transform="matrix(0.0617284,0,0,0.0617284,81.358025,0)"
           xlink:href="#t"
           id="use44" />
      </g>
      <path
         d="m 212,-179 c -10,-28 -35,-45 -73,-45 -59,0 -87,40 -87,99 0,60 29,101 89,101 43,0 62,-24 78,-52 l 27,14 C 228,-24 195,4 139,4 59,4 22,-46 18,-125 c -6,-104 99,-153 187,-111 19,9 31,26 39,46"
         id="v" />
      <use
         transform="scale(0.0617284)"
         xlink:href="#v"
         id="d" />
      <path
         d="m 68,-38 c 1,34 0,65 -14,84 H 32 C 41,33 49,20 49,0 H 33 v -38 h 35"
         id="w" />
      <g
         id="e">
        <use
           transform="scale(0.0617284)"
           xlink:href="#m"
           id="use45" />
        <use
           transform="matrix(0.0617284,0,0,0.0617284,7.345679,0)"
           xlink:href="#l"
           id="use46" />
        <use
           transform="matrix(0.0617284,0,0,0.0617284,22.160494,0)"
           xlink:href="#w"
           id="use47" />
      </g>
      <g
         id="f">
        <use
           transform="scale(0.0617284)"
           xlink:href="#u"
           id="use48" />
        <use
           transform="matrix(0.0617284,0,0,0.0617284,14.814815,0)"
           xlink:href="#t"
           id="use49" />
      </g>
      <path
         d="m 30,-248 c 118,-7 216,8 213,122 C 240,-48 200,0 122,0 H 30 Z m 33,221 c 89,8 146,-16 146,-99 0,-83 -60,-101 -146,-95 v 194"
         id="x" />
      <use
         transform="scale(0.0617284)"
         xlink:href="#x"
         id="g" />
      <g
         id="h">
        <use
           transform="scale(0.0617284)"
           xlink:href="#m"
           id="use50" />
        <use
           transform="matrix(0.0617284,0,0,0.0617284,7.345679,0)"
           xlink:href="#u"
           id="use51" />
        <use
           transform="matrix(0.0617284,0,0,0.0617284,22.160494,0)"
           xlink:href="#w"
           id="use52" />
      </g>
      <g
         id="i">
        <use
           transform="scale(0.0617284)"
           xlink:href="#l"
           id="use53" />
        <use
           transform="matrix(0.0617284,0,0,0.0617284,14.814815,0)"
           xlink:href="#t"
           id="use54" />
      </g>
      <path
         d="m 30,0 v -248 h 187 v 28 H 63 v 79 h 144 v 27 H 63 v 87 H 225 V 0 H 30"
         id="y" />
      <use
         transform="scale(0.0617284)"
         xlink:href="#y"
         id="j" />
      <g
         id="k">
        <use
           transform="scale(0.0617284)"
           xlink:href="#m"
           id="use55" />
        <use
           transform="matrix(0.0617284,0,0,0.0617284,7.345679,0)"
           xlink:href="#v"
           id="use56" />
        <use
           transform="matrix(0.0617284,0,0,0.0617284,23.333333,0)"
           xlink:href="#w"
           id="use57" />
        <use
           transform="matrix(0.0617284,0,0,0.0617284,29.506173,0)"
           xlink:href="#x"
           id="use58" />
        <use
           transform="matrix(0.0617284,0,0,0.0617284,45.493827,0)"
           xlink:href="#t"
           id="use59" />
      </g>
    </defs>
  </g>
</svg>
