<svg xmlns="http://www.w3.org/2000/svg" viewBox="268.75 177.11 304.39 241.05" fill="currentColor">
<g class="duckGroup">
    <path class="duckPath" d="M343.15,193.84c-9.71-8.35-23.58-12.53-41.6-12.53h-32.8v97.13h32.8c18.02,0,31.89-4.2,41.6-12.6,9.71-8.4,14.57-20.39,14.57-35.97s-4.86-27.68-14.57-36.04ZM328.92,244.71c-6.31,7.01-20.23,10.89-30.68,7.79-11.87-3.52-13.95-12.14-13.24-17.42,1.32-9.79,13.16-11.1,13.16-11.1,0,0,.2-.04.34-.16.14-.12.22-1.15.12-1.25-.1-.1-.64-.08-1.81-1.13-.62-.55-1.13-1.52-1.41-1.83-.28-.3-3.94-.56-5.42-.37-1.48.18-2.92.02-3.27-.42-.35-.44-.18-.82.24-1.27.6-.64.83-.66,1.33-.91.77-.38,1.43-.45,1.57-.51-.1-.05-.77-.11-1.12-.17-.6-.1-1.75-.61-2.44-1.09-1.1-.77-1.8-2.36-1.61-3.84.19-1.48,1.16-1.24,1.4-1.14.24.11,3.33,1.59,4.68,2,1.35.41,4.2.59,4.87.04s2.06-5.27,5.36-6.71c3.3-1.44,6.19-.64,7.18-.38,0,0,5.33,1.75,6.06,6.51.73,4.77-1.3,8.43-2.24,11.19-1.37,4.02,1.88,8.27,6.58,8.31,8.91.08,13.23-3.11,14.18-3.3.95-.19,1.26-.64,1.26-.64,0,0,1.24,10.78-5.07,17.79Z"></path>
    <path class="duckPath" d="M387.94,281.28c4.14,0,7.76-.82,10.87-2.47,3.11-1.65,5.5-3.93,7.2-6.85v6.78h25.97v-68.04h-27.39v42.91c-.38.94-1.06,1.74-2.05,2.4-.99.66-2.1.99-3.32.99-3.48,0-5.22-2.07-5.22-6.21v-40.09h-27.39v48.28c0,7.15,1.81,12.66,5.43,16.52,3.62,3.86,8.92,5.79,15.88,5.79Z"></path>
    <path class="duckPath" d="M458.8,275.42c5.93,2.96,12.8,4.45,20.61,4.45,1.88,0,3.74-.1,5.57-.28,1.84-.19,3.36-.47,4.59-.85v-24.7c-1.41.38-3.2.57-5.36.57-3.77,0-6.73-.87-8.89-2.61-2.17-1.74-3.25-4.21-3.25-7.41,0-3.01,1.15-5.41,3.46-7.2,2.31-1.79,5.34-2.68,9.1-2.68,1.6,0,3.2.24,4.8.71v-24.7c-2.73-.75-5.98-1.13-9.74-1.13-7.9,0-14.82,1.46-20.75,4.38-5.93,2.92-10.54,6.99-13.83,12.21-3.3,5.22-4.94,11.36-4.94,18.42s1.62,13.22,4.87,18.49c3.25,5.27,7.83,9.39,13.76,12.35Z"></path>
    <polygon class="duckPath" points="573.14 210.7 541.38 210.7 525.43 227.5 525.43 177.11 498.04 177.11 498.04 278.74 525.43 278.74 525.43 257.14 531.64 251.21 543.21 278.74 572.15 278.74 551.54 232.02 573.14 210.7"></polygon>
</g>
<g class="lingGroup">
    <rect class="lingPath" x="348.83" y="283.98" width="27.55" height="102.24"></rect>
    <g class="lingPath">
        <path d="M401.08,281.28c-4.36,0-7.93,1.37-10.72,4.12-2.79,2.75-4.19,6.25-4.19,10.51s1.4,7.74,4.19,10.44c2.79,2.7,6.37,4.05,10.72,4.05s7.93-1.35,10.72-4.05c2.79-2.7,4.19-6.18,4.19-10.44s-1.4-7.76-4.19-10.51c-2.79-2.74-6.37-4.12-10.72-4.12Z"></path>
        <rect x="387.31" y="317.78" width="27.55" height="68.44"></rect>
    </g>
    <path class="lingPath" d="M470.38,315.22c-4.26,0-7.98.83-11.15,2.49-3.17,1.66-5.61,3.95-7.31,6.89v-6.82h-26.13v68.44h27.55v-43.17c.85-2.27,2.65-3.41,5.4-3.41,3.5,0,5.25,2.04,5.25,6.11v40.47h27.55v-48.71c0-7.19-1.85-12.71-5.54-16.54s-8.9-5.75-15.62-5.75Z"></path>
    <path class="lingPath" d="M546.35,315.36c-9.56,0-17.85,1.54-24.85,4.62-7.01,3.08-12.42,7.46-16.26,13.13-3.83,5.68-5.75,12.35-5.75,20.02,0,10.22,3.15,18.32,9.44,24.28,6.29,5.96,14.79,8.95,25.49,8.95,2.65,0,5.44-.28,8.38-.85-.28,6.34-5.73,9.51-16.33,9.51-2.08,0-4.52-.17-7.31-.5-2.79-.33-5.37-.78-7.74-1.35v22.58c1.61.66,4.21,1.23,7.81,1.7,3.6.47,6.91.71,9.94.71,13.25,0,23.43-2.94,30.53-8.8,7.1-5.87,10.65-14.25,10.65-25.13v-66.31c-3.79-.76-7.81-1.37-12.07-1.85-4.26-.47-8.24-.71-11.93-.71ZM542.8,362.36c-1.42.66-2.98.99-4.69.99-3.22,0-5.8-.99-7.74-2.98-1.94-1.99-2.91-4.59-2.91-7.81,0-3.6,1.21-6.46,3.62-8.59s5.61-3.2,9.58-3.2c.66,0,1.37.1,2.13.28v21.3Z"></path>
</g>
</svg>
